#!OML:ASF E:\Style4\Style4.ASF
:FULLY-SPECIFIED
:DEGREES
1115
root 1.49246 17.5371 -1.5374 7.55293 -29.3386 -2.6307
lowerback 16.3754 -0.407972 -3.26233
upperback 13.7738 -1.22951 0.305911
thorax 5.71678 -1.03315 2.27399
lowerneck 2.80144 3.42476 -5.5957
upperneck -4.38045 4.13345 -3.62589
head -1.88532 2.23379 -0.30029
rclavicle 2.26615e-014 1.98785e-015
rhumerus 33.515 22.95 -69.6104
rradius 98.5563
rwrist -60.0157
rhand -46.8251 30.3215
rfingers 7.12502
rthumb -19.5391 1.28334
lclavicle 2.26615e-014 1.98785e-015
lhumerus 65.2462 -19.9624 15.2385
lradius 98.0444
lwrist 80.3164
lhand -23.8172 43.3031
lfingers 7.12502
lthumb 2.65388 73.2664
rfemur -30.852 11.5463 16.1959
rtibia 33.429
rfoot -9.7124 -3.76789
rtoes -18.9639
lfemur -27.6369 17.3389 -22.0551
ltibia 43.8675
lfoot -26.6456 19.4202
ltoes -7.32522
1116
root 1.48473 17.5378 -1.52936 7.63137 -29.3957 -2.79172
lowerback 16.3189 -0.539972 -3.27419
upperback 13.7655 -1.39834 0.174669
thorax 5.74426 -1.11254 2.15779
lowerneck 2.86365 3.55976 -5.53651
upperneck -4.29001 4.32733 -3.40192
head -1.8726 2.32269 -0.245214
rclavicle 7.15625e-014 -2.14687e-014
rhumerus 33.9172 22.6111 -68.4016
rradius 98.3633
rwrist -59.3711
rhand -46.2132 29.127
rfingers 7.12502
rthumb -18.9507 0.0302206
lclavicle 7.15625e-014 -2.14687e-014
lhumerus 65.2495 -20.205 16.206
lradius 98.0623
lwrist 80.3218
lhand -24.1581 43.196
lfingers 7.12502
lthumb 2.32469 73.1631
rfemur -30.7906 11.5521 16.3802
rtibia 33.3686
rfoot -9.72139 -3.69664
rtoes -18.8564
lfemur -27.6086 17.3035 -21.8575
ltibia 43.9319
lfoot -26.8483 19.3354
ltoes -6.69356
1117
root 1.47811 17.5362 -1.52296 7.71363 -29.5049 -2.9778
lowerback 16.2941 -0.667456 -3.24363
upperback 13.7668 -1.55842 0.0284244
thorax 5.76251 -1.18384 2.00129
lowerneck 2.84463 3.73079 -5.45764
upperneck -4.18027 4.57377 -3.24337
head -1.83785 2.43774 -0.213435
rclavicle 4.29375e-014 -3.10104e-014
rhumerus 34.4411 22.312 -66.9965
rradius 98.0318
rwrist -58.731
rhand -45.6706 28.4637
rfingers 7.12502
rthumb -18.4289 -0.683371
lclavicle 4.29375e-014 -3.10104e-014
lhumerus 65.1935 -20.3794 17.2448
lradius 98.0346
lwrist 80.3911
lhand -24.4608 43.0157
lfingers 7.12502
lthumb 2.03234 72.9858
rfemur -30.7541 11.53 16.6109
rtibia 33.3604
rfoot -9.70529 -3.56148
rtoes -19.2544
lfemur -27.5659 17.3606 -21.6415
ltibia 43.9709
lfoot -26.9667 19.2465
ltoes -5.95588
1118
root 1.47318 17.5331 -1.51929 7.72396 -29.719 -3.0267
lowerback 16.3275 -0.757345 -3.3296
upperback 13.7477 -1.68354 -0.168862
thorax 5.72737 -1.24308 1.85399
lowerneck 2.9112 3.91628 -5.42362
upperneck -4.15157 4.82927 -3.0472
head -1.84756 2.56048 -0.165863
rclavicle 7.55382e-014 -5.00937e-014
rhumerus 35.0222 22.1635 -65.3665
rradius 97.8286
rwrist -58.6555
rhand -45.6721 28.6359
rfingers 7.12502
rthumb -18.4303 -0.51102
lclavicle 7.55382e-014 -5.00937e-014
lhumerus 65.1219 -20.5772 18.2904
lradius 98.053
lwrist 80.3601
lhand -24.734 42.9289
lfingers 7.12502
lthumb 1.7685 72.9013
rfemur -30.7846 11.5575 16.6986
rtibia 33.4204
rfoot -9.71685 -3.38755
rtoes -19.2118
lfemur -27.5081 17.5368 -21.5788
ltibia 43.9772
lfoot -27.0345 19.2866
ltoes -5.97839
1119
root 1.46702 17.5323 -1.51644 7.70284 -29.8674 -2.73856
lowerback 16.2598 -0.84629 -3.72466
upperback 13.6776 -1.83289 -0.414973
thorax 5.70117 -1.3336 1.82872
lowerneck 2.93456 4.09298 -5.44379
upperneck -4.07216 5.07904 -2.77
head -1.83751 2.67764 -0.0823736
rclavicle 3.97569e-015 5.725e-014
rhumerus 35.6602 21.9841 -63.6777
rradius 97.7414
rwrist -58.8999
rhand -45.7545 28.8816
rfingers 7.12502
rthumb -18.5095 -0.25783
lclavicle 3.97569e-015 5.725e-014
lhumerus 65.0784 -20.8443 19.2746
lradius 98.0044
lwrist 79.9975
lhand -24.8893 42.9292
lfingers 7.12502
lthumb 1.61845 72.9028
rfemur -30.9643 11.4757 16.4342
rtibia 33.4782
rfoot -9.74984 -3.1985
rtoes -18.8743
lfemur -27.5944 17.5984 -21.8869
ltibia 43.9788
lfoot -27.0944 19.3693
ltoes -6.27749
